<mxfile host="app.diagrams.net" agent="Mozilla/5.0 (Windows NT 10.0; Win64; x64) AppleWebKit/537.36 (KHTML, like Gecko) Chrome/140.0.0.0 Safari/537.36 Edg/140.0.0.0" version="28.2.5">
  <diagram name="Page-1" id="rM6bCXwc-L18cZV9CMgu">
    <mxGraphModel dx="1016" dy="608" grid="1" gridSize="10" guides="1" tooltips="1" connect="1" arrows="1" fold="1" page="1" pageScale="1" pageWidth="827" pageHeight="1169" math="0" shadow="0">
      <root>
        <mxCell id="0" />
        <mxCell id="1" parent="0" />
        <mxCell id="B6C5JpJAWElbMP7GCrCe-1" value="Customer" style="rounded=0;whiteSpace=wrap;html=1;" vertex="1" parent="1">
          <mxGeometry x="200" y="335" width="90" height="40" as="geometry" />
        </mxCell>
        <mxCell id="B6C5JpJAWElbMP7GCrCe-2" value="&lt;font style=&quot;font-size: 8px;&quot;&gt;DNI(Primary Key)&lt;/font&gt;" style="ellipse;whiteSpace=wrap;html=1;" vertex="1" parent="1">
          <mxGeometry x="110" y="355" width="80" height="30" as="geometry" />
        </mxCell>
        <mxCell id="B6C5JpJAWElbMP7GCrCe-3" value="Name" style="ellipse;whiteSpace=wrap;html=1;" vertex="1" parent="1">
          <mxGeometry x="110" y="315" width="80" height="30" as="geometry" />
        </mxCell>
        <mxCell id="B6C5JpJAWElbMP7GCrCe-4" value="Adress" style="ellipse;whiteSpace=wrap;html=1;" vertex="1" parent="1">
          <mxGeometry x="130" y="275" width="80" height="30" as="geometry" />
        </mxCell>
        <mxCell id="B6C5JpJAWElbMP7GCrCe-5" value="Phone" style="ellipse;whiteSpace=wrap;html=1;" vertex="1" parent="1">
          <mxGeometry x="170" y="245" width="80" height="30" as="geometry" />
        </mxCell>
        <mxCell id="B6C5JpJAWElbMP7GCrCe-45" value="" style="edgeStyle=orthogonalEdgeStyle;rounded=0;orthogonalLoop=1;jettySize=auto;html=1;" edge="1" parent="1" source="B6C5JpJAWElbMP7GCrCe-7">
          <mxGeometry relative="1" as="geometry">
            <mxPoint x="430" y="495" as="targetPoint" />
          </mxGeometry>
        </mxCell>
        <mxCell id="B6C5JpJAWElbMP7GCrCe-7" value="Car" style="rounded=0;whiteSpace=wrap;html=1;" vertex="1" parent="1">
          <mxGeometry x="200" y="475" width="90" height="40" as="geometry" />
        </mxCell>
        <mxCell id="B6C5JpJAWElbMP7GCrCe-8" value="First Name" style="ellipse;whiteSpace=wrap;html=1;" vertex="1" parent="1">
          <mxGeometry x="20" y="325" width="80" height="30" as="geometry" />
        </mxCell>
        <mxCell id="B6C5JpJAWElbMP7GCrCe-9" value="Last Name" style="ellipse;whiteSpace=wrap;html=1;" vertex="1" parent="1">
          <mxGeometry x="20" y="285" width="80" height="30" as="geometry" />
        </mxCell>
        <mxCell id="B6C5JpJAWElbMP7GCrCe-29" value="" style="edgeStyle=orthogonalEdgeStyle;rounded=0;orthogonalLoop=1;jettySize=auto;html=1;" edge="1" parent="1" source="B6C5JpJAWElbMP7GCrCe-10">
          <mxGeometry relative="1" as="geometry">
            <mxPoint x="245" y="480" as="targetPoint" />
          </mxGeometry>
        </mxCell>
        <mxCell id="B6C5JpJAWElbMP7GCrCe-10" value="Owners" style="rhombus;whiteSpace=wrap;html=1;" vertex="1" parent="1">
          <mxGeometry x="215" y="395" width="60" height="50" as="geometry" />
        </mxCell>
        <mxCell id="B6C5JpJAWElbMP7GCrCe-11" value="&lt;font style=&quot;font-size: 8px;&quot;&gt;LIcence plate (Primary Key)&lt;/font&gt;" style="ellipse;whiteSpace=wrap;html=1;" vertex="1" parent="1">
          <mxGeometry x="80" y="455" width="80" height="30" as="geometry" />
        </mxCell>
        <mxCell id="B6C5JpJAWElbMP7GCrCe-12" value="&lt;span style=&quot;font-size: 8px;&quot;&gt;Brand&lt;/span&gt;" style="ellipse;whiteSpace=wrap;html=1;" vertex="1" parent="1">
          <mxGeometry x="80" y="485" width="80" height="30" as="geometry" />
        </mxCell>
        <mxCell id="B6C5JpJAWElbMP7GCrCe-13" value="&lt;span style=&quot;font-size: 8px;&quot;&gt;Model Year&lt;/span&gt;" style="ellipse;whiteSpace=wrap;html=1;" vertex="1" parent="1">
          <mxGeometry x="80" y="515" width="80" height="30" as="geometry" />
        </mxCell>
        <mxCell id="B6C5JpJAWElbMP7GCrCe-46" value="" style="edgeStyle=orthogonalEdgeStyle;rounded=0;orthogonalLoop=1;jettySize=auto;html=1;entryX=1;entryY=0.5;entryDx=0;entryDy=0;exitX=0;exitY=0.5;exitDx=0;exitDy=0;" edge="1" parent="1" source="B6C5JpJAWElbMP7GCrCe-16" target="B6C5JpJAWElbMP7GCrCe-7">
          <mxGeometry relative="1" as="geometry">
            <Array as="points">
              <mxPoint x="430" y="495" />
            </Array>
          </mxGeometry>
        </mxCell>
        <mxCell id="B6C5JpJAWElbMP7GCrCe-15" value="Reparation" style="rhombus;whiteSpace=wrap;html=1;" vertex="1" parent="1">
          <mxGeometry x="340" y="470" width="60" height="50" as="geometry" />
        </mxCell>
        <mxCell id="B6C5JpJAWElbMP7GCrCe-57" value="" style="edgeStyle=orthogonalEdgeStyle;rounded=0;orthogonalLoop=1;jettySize=auto;html=1;entryX=0;entryY=0.376;entryDx=0;entryDy=0;entryPerimeter=0;" edge="1" parent="1" source="B6C5JpJAWElbMP7GCrCe-16" target="B6C5JpJAWElbMP7GCrCe-24">
          <mxGeometry relative="1" as="geometry" />
        </mxCell>
        <mxCell id="B6C5JpJAWElbMP7GCrCe-16" value="Repair Order" style="rounded=0;whiteSpace=wrap;html=1;" vertex="1" parent="1">
          <mxGeometry x="430" y="470" width="90" height="40" as="geometry" />
        </mxCell>
        <mxCell id="B6C5JpJAWElbMP7GCrCe-49" value="" style="edgeStyle=orthogonalEdgeStyle;rounded=0;orthogonalLoop=1;jettySize=auto;html=1;" edge="1" parent="1" source="B6C5JpJAWElbMP7GCrCe-18" target="B6C5JpJAWElbMP7GCrCe-16">
          <mxGeometry relative="1" as="geometry" />
        </mxCell>
        <mxCell id="B6C5JpJAWElbMP7GCrCe-51" value="" style="edgeStyle=orthogonalEdgeStyle;rounded=0;orthogonalLoop=1;jettySize=auto;html=1;" edge="1" parent="1" source="B6C5JpJAWElbMP7GCrCe-18">
          <mxGeometry relative="1" as="geometry">
            <mxPoint x="290" y="360" as="targetPoint" />
          </mxGeometry>
        </mxCell>
        <mxCell id="B6C5JpJAWElbMP7GCrCe-18" value="Pay" style="rhombus;whiteSpace=wrap;html=1;" vertex="1" parent="1">
          <mxGeometry x="445" y="335" width="60" height="50" as="geometry" />
        </mxCell>
        <mxCell id="B6C5JpJAWElbMP7GCrCe-64" value="" style="edgeStyle=orthogonalEdgeStyle;rounded=0;orthogonalLoop=1;jettySize=auto;html=1;" edge="1" parent="1" source="B6C5JpJAWElbMP7GCrCe-20">
          <mxGeometry relative="1" as="geometry">
            <mxPoint x="245.0000000000001" y="745" as="targetPoint" />
          </mxGeometry>
        </mxCell>
        <mxCell id="B6C5JpJAWElbMP7GCrCe-20" value="Workshop" style="rounded=0;whiteSpace=wrap;html=1;" vertex="1" parent="1">
          <mxGeometry x="200" y="600" width="90" height="40" as="geometry" />
        </mxCell>
        <mxCell id="B6C5JpJAWElbMP7GCrCe-21" value="Service" style="rhombus;whiteSpace=wrap;html=1;" vertex="1" parent="1">
          <mxGeometry x="354" y="595" width="60" height="50" as="geometry" />
        </mxCell>
        <mxCell id="B6C5JpJAWElbMP7GCrCe-23" value="Part of" style="rhombus;whiteSpace=wrap;html=1;" vertex="1" parent="1">
          <mxGeometry x="550" y="465" width="60" height="50" as="geometry" />
        </mxCell>
        <mxCell id="B6C5JpJAWElbMP7GCrCe-24" value="" style="rounded=0;whiteSpace=wrap;html=1;" vertex="1" parent="1">
          <mxGeometry x="660" y="475" width="80" height="40" as="geometry" />
        </mxCell>
        <mxCell id="B6C5JpJAWElbMP7GCrCe-60" value="" style="edgeStyle=orthogonalEdgeStyle;rounded=0;orthogonalLoop=1;jettySize=auto;html=1;" edge="1" parent="1" source="B6C5JpJAWElbMP7GCrCe-25" target="B6C5JpJAWElbMP7GCrCe-23">
          <mxGeometry relative="1" as="geometry">
            <Array as="points">
              <mxPoint x="660" y="490" />
              <mxPoint x="660" y="490" />
            </Array>
          </mxGeometry>
        </mxCell>
        <mxCell id="B6C5JpJAWElbMP7GCrCe-25" value="Service" style="rounded=0;whiteSpace=wrap;html=1;" vertex="1" parent="1">
          <mxGeometry x="665" y="480" width="70" height="30" as="geometry" />
        </mxCell>
        <mxCell id="B6C5JpJAWElbMP7GCrCe-26" value="&lt;font style=&quot;font-size: 8px;&quot;&gt;Cost&lt;/font&gt;" style="ellipse;whiteSpace=wrap;html=1;" vertex="1" parent="1">
          <mxGeometry x="740" y="395" width="80" height="30" as="geometry" />
        </mxCell>
        <mxCell id="B6C5JpJAWElbMP7GCrCe-27" value="&lt;font style=&quot;font-size: 8px;&quot;&gt;Name&lt;/font&gt;" style="ellipse;whiteSpace=wrap;html=1;" vertex="1" parent="1">
          <mxGeometry x="710" y="365" width="80" height="30" as="geometry" />
        </mxCell>
        <mxCell id="B6C5JpJAWElbMP7GCrCe-28" value="" style="endArrow=none;html=1;rounded=0;entryX=0.5;entryY=1;entryDx=0;entryDy=0;exitX=0.5;exitY=0;exitDx=0;exitDy=0;" edge="1" parent="1" source="B6C5JpJAWElbMP7GCrCe-10" target="B6C5JpJAWElbMP7GCrCe-1">
          <mxGeometry width="50" height="50" relative="1" as="geometry">
            <mxPoint x="190" y="440" as="sourcePoint" />
            <mxPoint x="240" y="390" as="targetPoint" />
          </mxGeometry>
        </mxCell>
        <mxCell id="B6C5JpJAWElbMP7GCrCe-30" value="" style="endArrow=none;html=1;rounded=0;exitX=1;exitY=1;exitDx=0;exitDy=0;entryX=0.75;entryY=0;entryDx=0;entryDy=0;" edge="1" parent="1" source="B6C5JpJAWElbMP7GCrCe-5" target="B6C5JpJAWElbMP7GCrCe-1">
          <mxGeometry width="50" height="50" relative="1" as="geometry">
            <mxPoint x="255" y="405" as="sourcePoint" />
            <mxPoint x="260" y="330" as="targetPoint" />
          </mxGeometry>
        </mxCell>
        <mxCell id="B6C5JpJAWElbMP7GCrCe-31" value="" style="endArrow=none;html=1;rounded=0;exitX=1;exitY=0.5;exitDx=0;exitDy=0;entryX=0.5;entryY=0;entryDx=0;entryDy=0;" edge="1" parent="1" source="B6C5JpJAWElbMP7GCrCe-4" target="B6C5JpJAWElbMP7GCrCe-1">
          <mxGeometry width="50" height="50" relative="1" as="geometry">
            <mxPoint x="249" y="280" as="sourcePoint" />
            <mxPoint x="278" y="345" as="targetPoint" />
          </mxGeometry>
        </mxCell>
        <mxCell id="B6C5JpJAWElbMP7GCrCe-32" value="" style="endArrow=none;html=1;rounded=0;exitX=1;exitY=0.5;exitDx=0;exitDy=0;entryX=0.357;entryY=-0.088;entryDx=0;entryDy=0;entryPerimeter=0;" edge="1" parent="1" source="B6C5JpJAWElbMP7GCrCe-3" target="B6C5JpJAWElbMP7GCrCe-1">
          <mxGeometry width="50" height="50" relative="1" as="geometry">
            <mxPoint x="220" y="300" as="sourcePoint" />
            <mxPoint x="255" y="345" as="targetPoint" />
          </mxGeometry>
        </mxCell>
        <mxCell id="B6C5JpJAWElbMP7GCrCe-33" value="" style="endArrow=none;html=1;rounded=0;exitX=0;exitY=0;exitDx=0;exitDy=0;entryX=1;entryY=0.5;entryDx=0;entryDy=0;" edge="1" parent="1" source="B6C5JpJAWElbMP7GCrCe-3" target="B6C5JpJAWElbMP7GCrCe-9">
          <mxGeometry width="50" height="50" relative="1" as="geometry">
            <mxPoint x="200" y="340" as="sourcePoint" />
            <mxPoint x="242" y="341" as="targetPoint" />
          </mxGeometry>
        </mxCell>
        <mxCell id="B6C5JpJAWElbMP7GCrCe-34" value="" style="endArrow=none;html=1;rounded=0;exitX=0;exitY=0.5;exitDx=0;exitDy=0;entryX=0.948;entryY=0.363;entryDx=0;entryDy=0;entryPerimeter=0;" edge="1" parent="1" source="B6C5JpJAWElbMP7GCrCe-3" target="B6C5JpJAWElbMP7GCrCe-8">
          <mxGeometry width="50" height="50" relative="1" as="geometry">
            <mxPoint x="131" y="330" as="sourcePoint" />
            <mxPoint x="110" y="310" as="targetPoint" />
          </mxGeometry>
        </mxCell>
        <mxCell id="B6C5JpJAWElbMP7GCrCe-35" value="" style="endArrow=none;html=1;rounded=0;exitX=0;exitY=0.5;exitDx=0;exitDy=0;entryX=1;entryY=0;entryDx=0;entryDy=0;" edge="1" parent="1" source="B6C5JpJAWElbMP7GCrCe-1" target="B6C5JpJAWElbMP7GCrCe-2">
          <mxGeometry width="50" height="50" relative="1" as="geometry">
            <mxPoint x="120" y="340" as="sourcePoint" />
            <mxPoint x="106" y="346" as="targetPoint" />
          </mxGeometry>
        </mxCell>
        <mxCell id="B6C5JpJAWElbMP7GCrCe-36" value="" style="endArrow=none;html=1;rounded=0;exitX=1;exitY=1;exitDx=0;exitDy=0;entryX=0;entryY=1;entryDx=0;entryDy=0;" edge="1" parent="1" source="B6C5JpJAWElbMP7GCrCe-2" target="B6C5JpJAWElbMP7GCrCe-2">
          <mxGeometry width="50" height="50" relative="1" as="geometry">
            <mxPoint x="210" y="365" as="sourcePoint" />
            <mxPoint x="189" y="370" as="targetPoint" />
          </mxGeometry>
        </mxCell>
        <mxCell id="B6C5JpJAWElbMP7GCrCe-37" value="" style="endArrow=none;html=1;rounded=0;exitX=1;exitY=1;exitDx=0;exitDy=0;entryX=0;entryY=1;entryDx=0;entryDy=0;" edge="1" parent="1">
          <mxGeometry width="50" height="50" relative="1" as="geometry">
            <mxPoint x="149" y="470" as="sourcePoint" />
            <mxPoint x="91" y="470" as="targetPoint" />
          </mxGeometry>
        </mxCell>
        <mxCell id="B6C5JpJAWElbMP7GCrCe-41" value="" style="edgeStyle=orthogonalEdgeStyle;rounded=0;orthogonalLoop=1;jettySize=auto;html=1;" edge="1" parent="1" source="B6C5JpJAWElbMP7GCrCe-38">
          <mxGeometry relative="1" as="geometry">
            <mxPoint x="245" y="510" as="targetPoint" />
          </mxGeometry>
        </mxCell>
        <mxCell id="B6C5JpJAWElbMP7GCrCe-38" value="Reparation" style="rhombus;whiteSpace=wrap;html=1;" vertex="1" parent="1">
          <mxGeometry x="215" y="534" width="60" height="50" as="geometry" />
        </mxCell>
        <mxCell id="B6C5JpJAWElbMP7GCrCe-40" value="" style="endArrow=none;html=1;rounded=0;entryX=0.5;entryY=0;entryDx=0;entryDy=0;exitX=0.5;exitY=1;exitDx=0;exitDy=0;" edge="1" parent="1" source="B6C5JpJAWElbMP7GCrCe-38" target="B6C5JpJAWElbMP7GCrCe-20">
          <mxGeometry width="50" height="50" relative="1" as="geometry">
            <mxPoint x="255" y="525" as="sourcePoint" />
            <mxPoint x="255" y="544" as="targetPoint" />
          </mxGeometry>
        </mxCell>
        <mxCell id="B6C5JpJAWElbMP7GCrCe-43" value="" style="edgeStyle=orthogonalEdgeStyle;rounded=0;orthogonalLoop=1;jettySize=auto;html=1;exitX=0.5;exitY=0;exitDx=0;exitDy=0;entryX=0.5;entryY=1;entryDx=0;entryDy=0;" edge="1" parent="1" source="B6C5JpJAWElbMP7GCrCe-21" target="B6C5JpJAWElbMP7GCrCe-16">
          <mxGeometry relative="1" as="geometry">
            <mxPoint x="255" y="544" as="sourcePoint" />
            <mxPoint x="255" y="520" as="targetPoint" />
          </mxGeometry>
        </mxCell>
        <mxCell id="B6C5JpJAWElbMP7GCrCe-44" value="" style="endArrow=none;html=1;rounded=0;entryX=1;entryY=0.5;entryDx=0;entryDy=0;exitX=0;exitY=0.5;exitDx=0;exitDy=0;" edge="1" parent="1" source="B6C5JpJAWElbMP7GCrCe-21" target="B6C5JpJAWElbMP7GCrCe-20">
          <mxGeometry width="50" height="50" relative="1" as="geometry">
            <mxPoint x="255" y="594" as="sourcePoint" />
            <mxPoint x="255" y="610" as="targetPoint" />
          </mxGeometry>
        </mxCell>
        <mxCell id="B6C5JpJAWElbMP7GCrCe-53" value="" style="endArrow=none;html=1;rounded=0;entryX=0;entryY=0.25;entryDx=0;entryDy=0;exitX=1;exitY=0.5;exitDx=0;exitDy=0;" edge="1" parent="1" source="B6C5JpJAWElbMP7GCrCe-11" target="B6C5JpJAWElbMP7GCrCe-7">
          <mxGeometry width="50" height="50" relative="1" as="geometry">
            <mxPoint x="249" y="280" as="sourcePoint" />
            <mxPoint x="278" y="345" as="targetPoint" />
          </mxGeometry>
        </mxCell>
        <mxCell id="B6C5JpJAWElbMP7GCrCe-54" value="" style="endArrow=none;html=1;rounded=0;entryX=0;entryY=0.5;entryDx=0;entryDy=0;exitX=1.032;exitY=0.363;exitDx=0;exitDy=0;exitPerimeter=0;" edge="1" parent="1" source="B6C5JpJAWElbMP7GCrCe-12" target="B6C5JpJAWElbMP7GCrCe-7">
          <mxGeometry width="50" height="50" relative="1" as="geometry">
            <mxPoint x="170" y="480" as="sourcePoint" />
            <mxPoint x="210" y="495" as="targetPoint" />
          </mxGeometry>
        </mxCell>
        <mxCell id="B6C5JpJAWElbMP7GCrCe-55" value="" style="endArrow=none;html=1;rounded=0;exitX=1;exitY=0.5;exitDx=0;exitDy=0;" edge="1" parent="1" source="B6C5JpJAWElbMP7GCrCe-13">
          <mxGeometry width="50" height="50" relative="1" as="geometry">
            <mxPoint x="173" y="506" as="sourcePoint" />
            <mxPoint x="200" y="505" as="targetPoint" />
          </mxGeometry>
        </mxCell>
        <mxCell id="B6C5JpJAWElbMP7GCrCe-59" value="&lt;font style=&quot;font-size: 8px;&quot;&gt;Description&amp;nbsp;&lt;/font&gt;" style="ellipse;whiteSpace=wrap;html=1;" vertex="1" parent="1">
          <mxGeometry x="760" y="435" width="80" height="30" as="geometry" />
        </mxCell>
        <mxCell id="B6C5JpJAWElbMP7GCrCe-61" value="Employers" style="rhombus;whiteSpace=wrap;html=1;" vertex="1" parent="1">
          <mxGeometry x="215" y="670" width="60" height="50" as="geometry" />
        </mxCell>
        <mxCell id="B6C5JpJAWElbMP7GCrCe-62" value="Mechanics" style="rounded=0;whiteSpace=wrap;html=1;" vertex="1" parent="1">
          <mxGeometry x="200" y="740" width="90" height="40" as="geometry" />
        </mxCell>
        <mxCell id="B6C5JpJAWElbMP7GCrCe-68" value="ID" style="ellipse;whiteSpace=wrap;html=1;" vertex="1" parent="1">
          <mxGeometry x="70" y="740" width="80" height="30" as="geometry" />
        </mxCell>
        <mxCell id="B6C5JpJAWElbMP7GCrCe-69" value="Name" style="ellipse;whiteSpace=wrap;html=1;" vertex="1" parent="1">
          <mxGeometry x="80" y="780" width="80" height="30" as="geometry" />
        </mxCell>
        <mxCell id="B6C5JpJAWElbMP7GCrCe-70" value="Specialty&amp;nbsp;" style="ellipse;whiteSpace=wrap;html=1;" vertex="1" parent="1">
          <mxGeometry x="110" y="820" width="80" height="30" as="geometry" />
        </mxCell>
        <mxCell id="B6C5JpJAWElbMP7GCrCe-71" value="First Name" style="ellipse;whiteSpace=wrap;html=1;" vertex="1" parent="1">
          <mxGeometry x="30" y="830" width="80" height="30" as="geometry" />
        </mxCell>
        <mxCell id="B6C5JpJAWElbMP7GCrCe-72" value="Last Name" style="ellipse;whiteSpace=wrap;html=1;" vertex="1" parent="1">
          <mxGeometry y="800" width="80" height="30" as="geometry" />
        </mxCell>
        <mxCell id="B6C5JpJAWElbMP7GCrCe-74" value="" style="endArrow=none;html=1;rounded=0;entryX=0;entryY=0.25;entryDx=0;entryDy=0;exitX=0.944;exitY=0.139;exitDx=0;exitDy=0;exitPerimeter=0;" edge="1" parent="1" source="B6C5JpJAWElbMP7GCrCe-68" target="B6C5JpJAWElbMP7GCrCe-62">
          <mxGeometry width="50" height="50" relative="1" as="geometry">
            <mxPoint x="505" y="610" as="sourcePoint" />
            <mxPoint x="350" y="610" as="targetPoint" />
          </mxGeometry>
        </mxCell>
        <mxCell id="B6C5JpJAWElbMP7GCrCe-75" value="" style="endArrow=none;html=1;rounded=0;" edge="1" parent="1" source="B6C5JpJAWElbMP7GCrCe-69">
          <mxGeometry width="50" height="50" relative="1" as="geometry">
            <mxPoint x="156" y="754" as="sourcePoint" />
            <mxPoint x="200" y="760" as="targetPoint" />
          </mxGeometry>
        </mxCell>
        <mxCell id="B6C5JpJAWElbMP7GCrCe-76" value="" style="endArrow=none;html=1;rounded=0;entryX=0;entryY=1;entryDx=0;entryDy=0;" edge="1" parent="1" source="B6C5JpJAWElbMP7GCrCe-70" target="B6C5JpJAWElbMP7GCrCe-62">
          <mxGeometry width="50" height="50" relative="1" as="geometry">
            <mxPoint x="156" y="794" as="sourcePoint" />
            <mxPoint x="210" y="770" as="targetPoint" />
          </mxGeometry>
        </mxCell>
        <mxCell id="B6C5JpJAWElbMP7GCrCe-77" value="" style="endArrow=none;html=1;rounded=0;entryX=0;entryY=0.5;entryDx=0;entryDy=0;exitX=1;exitY=0;exitDx=0;exitDy=0;" edge="1" parent="1" source="B6C5JpJAWElbMP7GCrCe-72" target="B6C5JpJAWElbMP7GCrCe-69">
          <mxGeometry width="50" height="50" relative="1" as="geometry">
            <mxPoint x="173" y="831" as="sourcePoint" />
            <mxPoint x="210" y="790" as="targetPoint" />
          </mxGeometry>
        </mxCell>
        <mxCell id="B6C5JpJAWElbMP7GCrCe-78" value="" style="endArrow=none;html=1;rounded=0;entryX=0;entryY=1;entryDx=0;entryDy=0;exitX=0.733;exitY=0.008;exitDx=0;exitDy=0;exitPerimeter=0;" edge="1" parent="1" source="B6C5JpJAWElbMP7GCrCe-71" target="B6C5JpJAWElbMP7GCrCe-69">
          <mxGeometry width="50" height="50" relative="1" as="geometry">
            <mxPoint x="79" y="815" as="sourcePoint" />
            <mxPoint x="90" y="805" as="targetPoint" />
          </mxGeometry>
        </mxCell>
        <mxCell id="B6C5JpJAWElbMP7GCrCe-80" value="" style="edgeStyle=orthogonalEdgeStyle;rounded=0;orthogonalLoop=1;jettySize=auto;html=1;" edge="1" parent="1" source="B6C5JpJAWElbMP7GCrCe-79">
          <mxGeometry relative="1" as="geometry">
            <mxPoint x="280.0000000000001" y="760" as="targetPoint" />
          </mxGeometry>
        </mxCell>
        <mxCell id="B6C5JpJAWElbMP7GCrCe-81" value="" style="edgeStyle=orthogonalEdgeStyle;rounded=0;orthogonalLoop=1;jettySize=auto;html=1;" edge="1" parent="1" source="B6C5JpJAWElbMP7GCrCe-79" target="B6C5JpJAWElbMP7GCrCe-16">
          <mxGeometry relative="1" as="geometry">
            <Array as="points">
              <mxPoint x="475" y="623" />
              <mxPoint x="490" y="623" />
            </Array>
          </mxGeometry>
        </mxCell>
        <mxCell id="B6C5JpJAWElbMP7GCrCe-79" value="Worked by" style="rhombus;whiteSpace=wrap;html=1;" vertex="1" parent="1">
          <mxGeometry x="445" y="735" width="60" height="50" as="geometry" />
        </mxCell>
        <mxCell id="B6C5JpJAWElbMP7GCrCe-83" value="" style="endArrow=none;html=1;rounded=0;entryX=0.199;entryY=0.875;entryDx=0;entryDy=0;exitX=1;exitY=1;exitDx=0;exitDy=0;entryPerimeter=0;" edge="1" parent="1" source="B6C5JpJAWElbMP7GCrCe-68" target="B6C5JpJAWElbMP7GCrCe-68">
          <mxGeometry width="50" height="50" relative="1" as="geometry">
            <mxPoint x="325" y="730" as="sourcePoint" />
            <mxPoint x="170" y="730" as="targetPoint" />
          </mxGeometry>
        </mxCell>
        <mxCell id="B6C5JpJAWElbMP7GCrCe-84" value="&lt;font style=&quot;font-size: 8px;&quot;&gt;ID&lt;/font&gt;" style="ellipse;whiteSpace=wrap;html=1;" vertex="1" parent="1">
          <mxGeometry x="510" y="365" width="80" height="30" as="geometry" />
        </mxCell>
        <mxCell id="B6C5JpJAWElbMP7GCrCe-85" value="&lt;font style=&quot;font-size: 8px;&quot;&gt;Entry date&lt;/font&gt;" style="ellipse;whiteSpace=wrap;html=1;" vertex="1" parent="1">
          <mxGeometry x="590" y="385" width="80" height="30" as="geometry" />
        </mxCell>
        <mxCell id="B6C5JpJAWElbMP7GCrCe-86" value="&lt;span style=&quot;font-size: 8px;&quot;&gt;Observations&lt;/span&gt;" style="ellipse;whiteSpace=wrap;html=1;" vertex="1" parent="1">
          <mxGeometry x="600" y="425" width="80" height="30" as="geometry" />
        </mxCell>
        <mxCell id="B6C5JpJAWElbMP7GCrCe-88" value="" style="endArrow=none;html=1;rounded=0;entryX=0.5;entryY=1;entryDx=0;entryDy=0;exitX=0.75;exitY=0;exitDx=0;exitDy=0;" edge="1" parent="1" source="B6C5JpJAWElbMP7GCrCe-16" target="B6C5JpJAWElbMP7GCrCe-84">
          <mxGeometry width="50" height="50" relative="1" as="geometry">
            <mxPoint x="445" y="620" as="sourcePoint" />
            <mxPoint x="290" y="620" as="targetPoint" />
          </mxGeometry>
        </mxCell>
        <mxCell id="B6C5JpJAWElbMP7GCrCe-89" value="" style="endArrow=none;html=1;rounded=0;entryX=0;entryY=0.5;entryDx=0;entryDy=0;exitX=0.926;exitY=0.054;exitDx=0;exitDy=0;exitPerimeter=0;" edge="1" parent="1" source="B6C5JpJAWElbMP7GCrCe-16" target="B6C5JpJAWElbMP7GCrCe-85">
          <mxGeometry width="50" height="50" relative="1" as="geometry">
            <mxPoint x="508" y="480" as="sourcePoint" />
            <mxPoint x="560" y="405" as="targetPoint" />
          </mxGeometry>
        </mxCell>
        <mxCell id="B6C5JpJAWElbMP7GCrCe-91" value="" style="endArrow=none;html=1;rounded=0;entryX=0;entryY=0.5;entryDx=0;entryDy=0;exitX=1;exitY=0.25;exitDx=0;exitDy=0;" edge="1" parent="1" source="B6C5JpJAWElbMP7GCrCe-16" target="B6C5JpJAWElbMP7GCrCe-86">
          <mxGeometry width="50" height="50" relative="1" as="geometry">
            <mxPoint x="523" y="482" as="sourcePoint" />
            <mxPoint x="600" y="410" as="targetPoint" />
          </mxGeometry>
        </mxCell>
        <mxCell id="B6C5JpJAWElbMP7GCrCe-92" value="" style="endArrow=none;html=1;rounded=0;entryX=0;entryY=0.5;entryDx=0;entryDy=0;exitX=0.25;exitY=0;exitDx=0;exitDy=0;" edge="1" parent="1" source="B6C5JpJAWElbMP7GCrCe-24" target="B6C5JpJAWElbMP7GCrCe-27">
          <mxGeometry width="50" height="50" relative="1" as="geometry">
            <mxPoint x="530" y="490" as="sourcePoint" />
            <mxPoint x="610" y="450" as="targetPoint" />
          </mxGeometry>
        </mxCell>
        <mxCell id="B6C5JpJAWElbMP7GCrCe-94" value="" style="endArrow=none;html=1;rounded=0;entryX=-0.012;entryY=0.292;entryDx=0;entryDy=0;entryPerimeter=0;" edge="1" parent="1" target="B6C5JpJAWElbMP7GCrCe-26">
          <mxGeometry width="50" height="50" relative="1" as="geometry">
            <mxPoint x="690" y="480" as="sourcePoint" />
            <mxPoint x="720" y="390" as="targetPoint" />
          </mxGeometry>
        </mxCell>
        <mxCell id="B6C5JpJAWElbMP7GCrCe-95" value="" style="endArrow=none;html=1;rounded=0;entryX=0;entryY=0.5;entryDx=0;entryDy=0;exitX=1;exitY=0.5;exitDx=0;exitDy=0;" edge="1" parent="1" source="B6C5JpJAWElbMP7GCrCe-24" target="B6C5JpJAWElbMP7GCrCe-59">
          <mxGeometry width="50" height="50" relative="1" as="geometry">
            <mxPoint x="700" y="490" as="sourcePoint" />
            <mxPoint x="749" y="414" as="targetPoint" />
          </mxGeometry>
        </mxCell>
        <mxCell id="B6C5JpJAWElbMP7GCrCe-96" value="" style="endArrow=none;html=1;rounded=0;exitX=1;exitY=1;exitDx=0;exitDy=0;entryX=0;entryY=1;entryDx=0;entryDy=0;" edge="1" parent="1">
          <mxGeometry width="50" height="50" relative="1" as="geometry">
            <mxPoint x="578" y="385" as="sourcePoint" />
            <mxPoint x="520" y="385" as="targetPoint" />
          </mxGeometry>
        </mxCell>
      </root>
    </mxGraphModel>
  </diagram>
</mxfile>
